<mxfile host="app.diagrams.net" modified="2023-04-23T01:29:52.219Z" agent="Mozilla/5.0 (Windows NT 10.0; Win64; x64) AppleWebKit/537.36 (KHTML, like Gecko) Chrome/114.0.0.0 Safari/537.36" etag="3Gy95G66MHJyEZ4i3dtw" version="21.2.1" type="github">
  <diagram name="第 1 页" id="e0v4SnkxaWRDu-nPqgIv">
    <mxGraphModel dx="2215" dy="1630" grid="1" gridSize="10" guides="1" tooltips="1" connect="0" arrows="1" fold="1" page="1" pageScale="1" pageWidth="2400" pageHeight="1400" math="0" shadow="0">
      <root>
        <mxCell id="0" />
        <mxCell id="1" parent="0" />
        <mxCell id="uxTEpEnqK7FpSmuJOx9n-1" value="&lt;a style=&quot;color: rgb(0, 0, 0); font-family: Arial, Helvetica, sans-serif; font-weight: bold; text-decoration-line: none; font-size: 36px;&quot; class=&quot;atext&quot; href=&quot;https://docs.oracle.com/javase/7/docs/technotes/guides/vm/index.html&quot; alt=&quot;Java HotSpot VM&quot;&gt;Java HotSpot VM&lt;/a&gt;" style="rounded=0;whiteSpace=wrap;html=1;fillColor=#d5e8d4;strokeColor=#82b366;verticalAlign=middle;" parent="1" vertex="1">
          <mxGeometry x="705" y="1163" width="1490" height="60" as="geometry" />
        </mxCell>
        <mxCell id="uxTEpEnqK7FpSmuJOx9n-5" value="&lt;a style=&quot;color: rgb(0, 0, 0); font-family: Arial, Helvetica, sans-serif; font-weight: bold; text-decoration-line: none;&quot; alt=&quot;Introspection of loaded classes and objects&quot; class=&quot;atext&quot; href=&quot;https://docs.oracle.com/javase/7/docs/technotes/guides/reflection/index.html&quot;&gt;&lt;font style=&quot;font-size: 36px;&quot;&gt;Reflection&lt;/font&gt;&lt;/a&gt;" style="rounded=0;whiteSpace=wrap;html=1;fontSize=36;fillColor=#e3c800;strokeColor=#B09500;fontColor=#000000;" parent="1" vertex="1">
          <mxGeometry x="705" y="1093" width="280" height="60" as="geometry" />
        </mxCell>
        <mxCell id="uxTEpEnqK7FpSmuJOx9n-6" value="&lt;a style=&quot;color: rgb(0, 0, 0); font-family: Arial, Helvetica, sans-serif; font-weight: bold; text-decoration-line: none;&quot; class=&quot;atext&quot; href=&quot;https://docs.oracle.com/javase/7/docs/api/java/util/regex/package-summary.html&quot; alt=&quot;Regular expressions&quot;&gt;&lt;font style=&quot;font-size: 36px;&quot;&gt;Regular Expressions&lt;/font&gt;&lt;/a&gt;" style="rounded=0;whiteSpace=wrap;html=1;fontSize=36;fillColor=#e3c800;strokeColor=#B09500;fontColor=#000000;" parent="1" vertex="1">
          <mxGeometry x="995" y="1093" width="380" height="60" as="geometry" />
        </mxCell>
        <mxCell id="uxTEpEnqK7FpSmuJOx9n-7" value="&lt;a style=&quot;color: rgb(0, 0, 0); font-family: Arial, Helvetica, sans-serif; font-weight: bold; text-decoration-line: none;&quot; alt=&quot;Package Version Identification&quot; class=&quot;atext&quot; href=&quot;https://docs.oracle.com/javase/7/docs/technotes/guides/versioning/index.html&quot;&gt;Versioning&lt;/a&gt;" style="rounded=0;whiteSpace=wrap;html=1;fontSize=36;fillColor=#e3c800;strokeColor=#B09500;fontColor=#000000;" parent="1" vertex="1">
          <mxGeometry x="1385" y="1093" width="380" height="60" as="geometry" />
        </mxCell>
        <mxCell id="uxTEpEnqK7FpSmuJOx9n-8" value="&lt;a style=&quot;color: rgb(0, 0, 0); font-family: Arial, Helvetica, sans-serif; font-weight: bold; text-decoration-line: none;&quot; alt=&quot;Reading and writing ZIP and GZIP file formats&quot; class=&quot;atext&quot; href=&quot;https://docs.oracle.com/javase/7/docs/api/java/util/zip/package-summary.html&quot;&gt;&lt;font style=&quot;font-size: 36px;&quot;&gt;Zip&lt;/font&gt;&lt;/a&gt;" style="rounded=0;whiteSpace=wrap;html=1;fontSize=36;fillColor=#e3c800;strokeColor=#B09500;fontColor=#000000;" parent="1" vertex="1">
          <mxGeometry x="1775" y="1093" width="80" height="60" as="geometry" />
        </mxCell>
        <mxCell id="uxTEpEnqK7FpSmuJOx9n-9" value="&lt;a style=&quot;color: rgb(0, 0, 0); font-family: Arial, Helvetica, sans-serif; font-weight: bold; text-decoration-line: none;&quot; alt=&quot;instrumentation&quot; class=&quot;atext&quot; href=&quot;https://docs.oracle.com/javase/7/docs/technotes/guides/instrumentation/index.html&quot;&gt;Instrumentation&lt;/a&gt;" style="rounded=0;whiteSpace=wrap;html=1;fontSize=36;fillColor=#e3c800;strokeColor=#B09500;fontColor=#000000;" parent="1" vertex="1">
          <mxGeometry x="1865" y="1093" width="330" height="60" as="geometry" />
        </mxCell>
        <mxCell id="uxTEpEnqK7FpSmuJOx9n-10" value="&lt;a style=&quot;color: rgb(0, 0, 0); font-family: Arial, Helvetica, sans-serif; font-weight: bold; text-decoration-line: none;&quot; class=&quot;atext&quot; href=&quot;https://docs.oracle.com/javase/7/docs/technotes/guides/logging/index.html&quot; alt=&quot;Logging features&quot;&gt;Logging&lt;/a&gt;" style="rounded=0;whiteSpace=wrap;html=1;fontSize=36;fillColor=#e3c800;strokeColor=#B09500;fontColor=#000000;" parent="1" vertex="1">
          <mxGeometry x="705" y="1023" width="280" height="60" as="geometry" />
        </mxCell>
        <mxCell id="uxTEpEnqK7FpSmuJOx9n-11" value="&lt;a style=&quot;color: rgb(0, 0, 0); font-family: Arial, Helvetica, sans-serif; font-weight: bold; text-decoration-line: none;&quot; alt=&quot;Java virtual machine monitoring and management&quot; class=&quot;atext&quot; href=&quot;https://docs.oracle.com/javase/7/docs/technotes/guides/management/index.html&quot;&gt;Management&lt;/a&gt;" style="rounded=0;whiteSpace=wrap;html=1;fontSize=36;fillColor=#e3c800;strokeColor=#B09500;fontColor=#000000;" parent="1" vertex="1">
          <mxGeometry x="995" y="1023" width="380" height="60" as="geometry" />
        </mxCell>
        <mxCell id="uxTEpEnqK7FpSmuJOx9n-12" value="&lt;a style=&quot;color: rgb(0, 0, 0); font-family: Arial, Helvetica, sans-serif; font-weight: bold; text-decoration-line: none;&quot; class=&quot;atext&quot; href=&quot;https://docs.oracle.com/javase/7/docs/technotes/guides/preferences/index.html&quot; alt=&quot;Preferences&quot;&gt;Preferences API&lt;/a&gt;" style="rounded=0;whiteSpace=wrap;html=1;fontSize=36;fillColor=#e3c800;strokeColor=#B09500;fontColor=#000000;" parent="1" vertex="1">
          <mxGeometry x="1385" y="1023" width="380" height="60" as="geometry" />
        </mxCell>
        <mxCell id="uxTEpEnqK7FpSmuJOx9n-14" value="&lt;a style=&quot;color: rgb(0, 0, 0); font-family: Arial, Helvetica, sans-serif; font-weight: bold; text-decoration-line: none;&quot; class=&quot;atext&quot; href=&quot;https://docs.oracle.com/javase/7/docs/api/java/lang/ref/package-summary.html&quot; alt=&quot;Reference Objects API&quot;&gt;Ref Objects&lt;/a&gt;" style="rounded=0;whiteSpace=wrap;html=1;fontSize=36;fillColor=#e3c800;strokeColor=#B09500;fontColor=#000000;" parent="1" vertex="1">
          <mxGeometry x="1775" y="1023" width="420" height="60" as="geometry" />
        </mxCell>
        <mxCell id="uxTEpEnqK7FpSmuJOx9n-15" value="&lt;a style=&quot;color: rgb(0, 0, 0); font-family: Arial, Helvetica, sans-serif; font-weight: bold; text-decoration-line: none;&quot; alt=&quot;java.lang and java.util packages&quot; class=&quot;atext&quot; href=&quot;https://docs.oracle.com/javase/7/docs/technotes/guides/lang/index.html&quot;&gt;lang and util&lt;/a&gt;" style="rounded=0;whiteSpace=wrap;html=1;fontSize=36;fillColor=#e3c800;strokeColor=#B09500;fontColor=#000000;" parent="1" vertex="1">
          <mxGeometry x="705" y="953" width="280" height="60" as="geometry" />
        </mxCell>
        <mxCell id="uxTEpEnqK7FpSmuJOx9n-16" value="&lt;a style=&quot;color: rgb(0, 0, 0); font-family: Arial, Helvetica, sans-serif; font-weight: bold; text-decoration-line: none;&quot; alt=&quot;Framework for representing and manipulating collections&quot; class=&quot;atext&quot; href=&quot;https://docs.oracle.com/javase/7/docs/technotes/guides/collections/index.html&quot;&gt;Collections&lt;/a&gt;" style="rounded=0;whiteSpace=wrap;html=1;fontSize=36;fillColor=#e3c800;strokeColor=#B09500;fontColor=#000000;" parent="1" vertex="1">
          <mxGeometry x="995" y="953" width="380" height="60" as="geometry" />
        </mxCell>
        <mxCell id="uxTEpEnqK7FpSmuJOx9n-17" value="&lt;a style=&quot;color: rgb(0, 0, 0); font-family: Arial, Helvetica, sans-serif; font-weight: bold; text-decoration-line: none;&quot; alt=&quot;Concurrency utilities&quot; class=&quot;atext&quot; href=&quot;https://docs.oracle.com/javase/7/docs/technotes/guides/concurrency/index.html&quot;&gt;Concurrency Utilities&lt;/a&gt;" style="rounded=0;whiteSpace=wrap;html=1;fontSize=36;fillColor=#e3c800;strokeColor=#B09500;fontColor=#000000;" parent="1" vertex="1">
          <mxGeometry x="1385" y="953" width="380" height="60" as="geometry" />
        </mxCell>
        <mxCell id="uxTEpEnqK7FpSmuJOx9n-18" value="&lt;a style=&quot;color: rgb(0, 0, 0); font-family: Arial, Helvetica, sans-serif; font-weight: bold; text-decoration-line: none;&quot; alt=&quot;Platform-independent file format that aggregates many files into one&quot; class=&quot;atext&quot; href=&quot;https://docs.oracle.com/javase/7/docs/technotes/guides/jar/index.html&quot;&gt;JAR&lt;/a&gt;" style="rounded=0;whiteSpace=wrap;html=1;fontSize=36;fillColor=#e3c800;strokeColor=#B09500;fontColor=#000000;" parent="1" vertex="1">
          <mxGeometry x="1775" y="953" width="420" height="60" as="geometry" />
        </mxCell>
        <mxCell id="uxTEpEnqK7FpSmuJOx9n-19" value="&lt;a style=&quot;font-size: 36px; color: rgb(0, 0, 0); font-family: Arial, Helvetica, sans-serif; text-decoration: underline; font-style: normal; font-variant-ligatures: normal; font-variant-caps: normal; font-weight: 400; letter-spacing: normal; orphans: 2; text-align: right; text-indent: 0px; text-transform: none; widows: 2; word-spacing: 0px; -webkit-text-stroke-width: 0px;&quot; class=&quot;ahead&quot; href=&quot;https://docs.oracle.com/javase/7/docs/technotes/guides/vm/index.html&quot; alt=&quot;Java Virtual Machine&quot;&gt;&lt;b style=&quot;font-size: 36px;&quot;&gt;Java Virtual Machine&lt;/b&gt;&lt;/a&gt;" style="text;whiteSpace=wrap;html=1;fontSize=36;" parent="1" vertex="1">
          <mxGeometry x="315" y="1163" width="370" height="60" as="geometry" />
        </mxCell>
        <mxCell id="uxTEpEnqK7FpSmuJOx9n-20" value="&lt;a style=&quot;font-size: 36px; color: rgb(0, 0, 0); font-family: Arial, Helvetica, sans-serif; text-decoration: underline; font-style: normal; font-variant-ligatures: normal; font-variant-caps: normal; font-weight: 400; letter-spacing: normal; orphans: 2; text-align: right; text-indent: 0px; text-transform: none; widows: 2; word-spacing: 0px; -webkit-text-stroke-width: 0px;&quot; class=&quot;ahead&quot; href=&quot;https://docs.oracle.com/javase/7/docs/technotes/guides/index.html#langutil&quot;&gt;&lt;b style=&quot;font-size: 36px;&quot;&gt;lang and util&lt;br style=&quot;font-size: 36px;&quot;&gt;Base Libraries&lt;/b&gt;&lt;/a&gt;" style="text;whiteSpace=wrap;html=1;fontSize=36;" parent="1" vertex="1">
          <mxGeometry x="425" y="1003" width="260" height="100" as="geometry" />
        </mxCell>
        <mxCell id="uxTEpEnqK7FpSmuJOx9n-21" value="&lt;font style=&quot;font-size: 24px;&quot;&gt;图源：https://docs.oracle.com/javase/7/docs/index.html&lt;/font&gt;" style="text;html=1;strokeColor=none;fillColor=none;align=center;verticalAlign=middle;whiteSpace=wrap;rounded=0;fontStyle=1" parent="1" vertex="1">
          <mxGeometry x="1115" y="1263" width="670" height="50" as="geometry" />
        </mxCell>
        <mxCell id="oNcUS2OVP6WuHT-fpof1-1" value="&lt;a style=&quot;color: rgb(0, 0, 0); font-family: Arial, Helvetica, sans-serif; font-weight: bold; text-decoration-line: none;&quot; alt=&quot;Writing secure applications&quot; class=&quot;atext&quot; href=&quot;https://docs.oracle.com/javase/7/docs/technotes/guides/security/index.html&quot;&gt;Security&lt;/a&gt;" style="rounded=0;whiteSpace=wrap;html=1;fontSize=36;fillColor=#f0a30a;strokeColor=#BD7000;fontColor=#000000;" parent="1" vertex="1">
          <mxGeometry x="705" y="883" width="280" height="60" as="geometry" />
        </mxCell>
        <mxCell id="oNcUS2OVP6WuHT-fpof1-2" value="&lt;a style=&quot;color: rgb(0, 0, 0); font-family: Arial, Helvetica, sans-serif; font-weight: bold; text-decoration-line: none;&quot; alt=&quot;Java input/output classes with object support serialization&quot; class=&quot;atext&quot; href=&quot;https://docs.oracle.com/javase/7/docs/technotes/guides/serialization/index.html&quot;&gt;Serialization&lt;/a&gt;" style="rounded=0;whiteSpace=wrap;html=1;fontSize=36;fillColor=#f0a30a;strokeColor=#BD7000;fontColor=#000000;" parent="1" vertex="1">
          <mxGeometry x="995" y="883" width="320" height="60" as="geometry" />
        </mxCell>
        <mxCell id="oNcUS2OVP6WuHT-fpof1-3" value="&lt;a style=&quot;color: rgb(0, 0, 0); font-family: Arial, Helvetica, sans-serif; font-weight: bold; text-decoration-line: none;&quot; alt=&quot;Mechanism for JVM to use optional packages&quot; class=&quot;atext&quot; href=&quot;https://docs.oracle.com/javase/7/docs/technotes/guides/extensions/index.html&quot;&gt;Extension Mechanism&lt;/a&gt;" style="rounded=0;whiteSpace=wrap;html=1;fontSize=36;fillColor=#f0a30a;strokeColor=#BD7000;fontColor=#000000;" parent="1" vertex="1">
          <mxGeometry x="1325" y="883" width="440" height="60" as="geometry" />
        </mxCell>
        <mxCell id="oNcUS2OVP6WuHT-fpof1-5" value="&lt;a style=&quot;color: rgb(0, 0, 0); font-family: Arial, Helvetica, sans-serif; font-weight: bold; text-decoration-line: none;&quot; alt=&quot;Java API for Extensible Markup Language Processing&quot; class=&quot;atext&quot; href=&quot;https://docs.oracle.com/javase/7/docs/technotes/guides/xml/index.html&quot;&gt;XML JAXP&lt;/a&gt;" style="rounded=0;whiteSpace=wrap;html=1;fontSize=36;fillColor=#f0a30a;strokeColor=#BD7000;fontColor=#000000;" parent="1" vertex="1">
          <mxGeometry x="1775" y="883" width="420" height="60" as="geometry" />
        </mxCell>
        <mxCell id="oNcUS2OVP6WuHT-fpof1-6" value="&lt;a style=&quot;color: rgb(0, 0, 0); font-family: Arial, Helvetica, sans-serif; font-weight: bold; text-decoration-line: none;&quot; alt=&quot;Java Native Interface&quot; class=&quot;atext&quot; href=&quot;https://docs.oracle.com/javase/7/docs/technotes/guides/jni/index.html&quot;&gt;JNI&lt;/a&gt;" style="rounded=0;whiteSpace=wrap;html=1;fontSize=36;fillColor=#f0a30a;strokeColor=#BD7000;fontColor=#000000;" parent="1" vertex="1">
          <mxGeometry x="705" y="813" width="280" height="60" as="geometry" />
        </mxCell>
        <mxCell id="oNcUS2OVP6WuHT-fpof1-7" value="&lt;a style=&quot;color: rgb(0, 0, 0); font-family: Arial, Helvetica, sans-serif; font-weight: bold; text-decoration-line: none;&quot; alt=&quot;Floating point and arbitrary-precision math&quot; class=&quot;atext&quot; href=&quot;https://docs.oracle.com/javase/7/docs/technotes/guides/math/index.html&quot;&gt;Math&lt;/a&gt;" style="rounded=0;whiteSpace=wrap;html=1;fontSize=36;fillColor=#f0a30a;strokeColor=#BD7000;fontColor=#000000;" parent="1" vertex="1">
          <mxGeometry x="995" y="813" width="320" height="60" as="geometry" />
        </mxCell>
        <mxCell id="oNcUS2OVP6WuHT-fpof1-8" value="&lt;a style=&quot;color: rgb(0, 0, 0); font-family: Arial, Helvetica, sans-serif; font-weight: bold; text-decoration-line: none;&quot; alt=&quot;Networking API&quot; class=&quot;atext&quot; href=&quot;https://docs.oracle.com/javase/7/docs/technotes/guides/net/index.html&quot;&gt;Networking&lt;/a&gt;" style="rounded=0;whiteSpace=wrap;html=1;fontSize=36;fillColor=#f0a30a;strokeColor=#BD7000;fontColor=#000000;" parent="1" vertex="1">
          <mxGeometry x="1325" y="813" width="440" height="60" as="geometry" />
        </mxCell>
        <mxCell id="oNcUS2OVP6WuHT-fpof1-9" value="&lt;a style=&quot;color: rgb(0, 0, 0); font-family: Arial, Helvetica, sans-serif; font-weight: bold; text-decoration-line: none;&quot; alt=&quot;Endorsed Standards Override Mechanism&quot; class=&quot;atext&quot; href=&quot;https://docs.oracle.com/javase/7/docs/technotes/guides/standards/index.html&quot;&gt;Override Mechanism&lt;/a&gt;" style="rounded=0;whiteSpace=wrap;html=1;fontSize=36;fillColor=#f0a30a;strokeColor=#BD7000;fontColor=#000000;" parent="1" vertex="1">
          <mxGeometry x="1775" y="813" width="420" height="60" as="geometry" />
        </mxCell>
        <mxCell id="oNcUS2OVP6WuHT-fpof1-10" value="&lt;a style=&quot;color: rgb(0, 0, 0); font-family: Arial, Helvetica, sans-serif; font-weight: bold; text-decoration-line: none;&quot; alt=&quot;Java Beans component API&quot; class=&quot;atext&quot; href=&quot;https://docs.oracle.com/javase/7/docs/technotes/guides/beans/index.html&quot;&gt;Beans&lt;/a&gt;" style="rounded=0;whiteSpace=wrap;html=1;fontSize=36;fillColor=#f0a30a;strokeColor=#BD7000;fontColor=#000000;" parent="1" vertex="1">
          <mxGeometry x="705" y="743" width="280" height="60" as="geometry" />
        </mxCell>
        <mxCell id="oNcUS2OVP6WuHT-fpof1-11" value="&lt;a style=&quot;color: rgb(0, 0, 0); font-family: Arial, Helvetica, sans-serif; font-weight: bold; text-decoration-line: none;&quot; alt=&quot;Application internationalization&quot; class=&quot;atext&quot; href=&quot;https://docs.oracle.com/javase/7/docs/technotes/guides/intl/index.html&quot;&gt;Int&#39;l Support&lt;/a&gt;" style="rounded=0;whiteSpace=wrap;html=1;fontSize=36;fillColor=#f0a30a;strokeColor=#BD7000;fontColor=#000000;" parent="1" vertex="1">
          <mxGeometry x="995" y="743" width="320" height="60" as="geometry" />
        </mxCell>
        <mxCell id="oNcUS2OVP6WuHT-fpof1-12" value="&lt;a style=&quot;color: rgb(0, 0, 0); font-family: Arial, Helvetica, sans-serif; font-weight: bold; text-decoration-line: none;&quot; alt=&quot;Input and output through data streams, serialization and file systems&quot; class=&quot;atext&quot; href=&quot;https://docs.oracle.com/javase/7/docs/technotes/guides/io/index.html&quot;&gt;Input/Output&lt;/a&gt;" style="rounded=0;whiteSpace=wrap;html=1;fontSize=36;fillColor=#f0a30a;strokeColor=#BD7000;fontColor=#000000;" parent="1" vertex="1">
          <mxGeometry x="1325" y="743" width="440" height="60" as="geometry" />
        </mxCell>
        <mxCell id="oNcUS2OVP6WuHT-fpof1-13" value="&lt;a style=&quot;color: rgb(0, 0, 0); font-family: Arial, Helvetica, sans-serif; font-weight: bold; text-decoration-line: none;&quot; alt=&quot;Java Management Extensions&quot; class=&quot;atext&quot; href=&quot;https://docs.oracle.com/javase/7/docs/technotes/guides/jmx/index.html&quot;&gt;JMX&lt;/a&gt;" style="rounded=0;whiteSpace=wrap;html=1;fontSize=36;fillColor=#f0a30a;strokeColor=#BD7000;fontColor=#000000;" parent="1" vertex="1">
          <mxGeometry x="1775" y="743" width="420" height="60" as="geometry" />
        </mxCell>
        <mxCell id="oNcUS2OVP6WuHT-fpof1-14" value="&lt;a style=&quot;font-size: 36px; color: rgb(0, 0, 0); font-family: Arial, Helvetica, sans-serif; text-decoration: underline; font-style: normal; font-variant-ligatures: normal; font-variant-caps: normal; font-weight: 400; letter-spacing: normal; orphans: 2; text-align: right; text-indent: 0px; text-transform: none; widows: 2; word-spacing: 0px; -webkit-text-stroke-width: 0px;&quot; alt=&quot;Base libraries other than lang and util&quot; class=&quot;ahead&quot; href=&quot;https://docs.oracle.com/javase/7/docs/technotes/guides/index.html#otherbase&quot;&gt;&lt;b style=&quot;font-size: 36px;&quot;&gt;Other Base&lt;br style=&quot;font-size: 36px;&quot;&gt;Libraries&lt;/b&gt;&lt;/a&gt;" style="text;whiteSpace=wrap;html=1;fontSize=36;" parent="1" vertex="1">
          <mxGeometry x="485" y="798" width="200" height="90" as="geometry" />
        </mxCell>
        <mxCell id="oNcUS2OVP6WuHT-fpof1-15" value="&lt;a style=&quot;color: rgb(0, 0, 0); font-family: Arial, Helvetica, sans-serif; font-weight: bold; text-decoration-line: none;&quot; alt=&quot;Interfaces defined in CORBA Interface Definition Language&quot; class=&quot;atext&quot; href=&quot;https://docs.oracle.com/javase/7/docs/technotes/guides/idl/index.html&quot;&gt;IDL&lt;/a&gt;" style="rounded=0;whiteSpace=wrap;html=1;fontSize=36;fillColor=#99FF99;strokeColor=#0e8088;" parent="1" vertex="1">
          <mxGeometry x="705" y="673" width="180" height="60" as="geometry" />
        </mxCell>
        <mxCell id="oNcUS2OVP6WuHT-fpof1-16" value="&lt;a style=&quot;color: rgb(0, 0, 0); font-family: Arial, Helvetica, sans-serif; font-weight: bold; text-decoration-line: none;&quot; alt=&quot;RMI interfaces using IIOP as the underlying transport&quot; class=&quot;atext&quot; href=&quot;https://docs.oracle.com/javase/7/docs/technotes/guides/rmi-iiop/index.html&quot;&gt;RMI-IIOP&lt;/a&gt;" style="rounded=0;whiteSpace=wrap;html=1;fontSize=36;fillColor=#99FF99;strokeColor=#0e8088;" parent="1" vertex="1">
          <mxGeometry x="1585" y="673" width="320" height="60" as="geometry" />
        </mxCell>
        <mxCell id="oNcUS2OVP6WuHT-fpof1-17" value="&lt;a style=&quot;color: rgb(0, 0, 0); font-family: Arial, Helvetica, sans-serif; font-weight: bold; text-decoration-line: none;&quot; alt=&quot;Scripting for the Java Platform&quot; class=&quot;atext&quot; href=&quot;https://docs.oracle.com/javase/7/docs/technotes/guides/scripting/index.html&quot;&gt;Scripting&lt;/a&gt;" style="rounded=0;whiteSpace=wrap;html=1;fontSize=36;fillColor=#99FF99;strokeColor=#0e8088;" parent="1" vertex="1">
          <mxGeometry x="1915" y="673" width="280" height="60" as="geometry" />
        </mxCell>
        <mxCell id="oNcUS2OVP6WuHT-fpof1-18" value="&lt;a style=&quot;color: rgb(0, 0, 0); font-family: Arial, Helvetica, sans-serif; font-weight: bold; text-decoration-line: none;&quot; alt=&quot;Java Database Connectivity&quot; class=&quot;atext&quot; href=&quot;https://docs.oracle.com/javase/7/docs/technotes/guides/jdbc/index.html&quot;&gt;JDBC&lt;/a&gt;" style="rounded=0;whiteSpace=wrap;html=1;fontSize=36;fillColor=#99FF99;strokeColor=#0e8088;" parent="1" vertex="1">
          <mxGeometry x="895" y="673" width="220" height="60" as="geometry" />
        </mxCell>
        <mxCell id="oNcUS2OVP6WuHT-fpof1-19" value="&lt;a style=&quot;color: rgb(0, 0, 0); font-family: Arial, Helvetica, sans-serif; font-weight: bold; text-decoration-line: none;&quot; alt=&quot;Java Naming and Directory Interface&quot; class=&quot;atext&quot; href=&quot;https://docs.oracle.com/javase/7/docs/technotes/guides/jndi/index.html&quot;&gt;JNDI&lt;/a&gt;" style="rounded=0;whiteSpace=wrap;html=1;fontSize=36;fillColor=#99FF99;strokeColor=#0e8088;" parent="1" vertex="1">
          <mxGeometry x="1125" y="673" width="220" height="60" as="geometry" />
        </mxCell>
        <mxCell id="oNcUS2OVP6WuHT-fpof1-20" value="&lt;a style=&quot;color: rgb(0, 0, 0); font-family: Arial, Helvetica, sans-serif; font-weight: bold; text-decoration-line: none;&quot; alt=&quot;Remote Method Invocation&quot; class=&quot;atext&quot; href=&quot;https://docs.oracle.com/javase/7/docs/technotes/guides/rmi/index.html&quot;&gt;RMI&lt;/a&gt;" style="rounded=0;whiteSpace=wrap;html=1;fontSize=36;fillColor=#99FF99;strokeColor=#0e8088;" parent="1" vertex="1">
          <mxGeometry x="1355" y="673" width="220" height="60" as="geometry" />
        </mxCell>
        <mxCell id="oNcUS2OVP6WuHT-fpof1-21" value="&lt;table style=&quot;border-collapse: collapse; border: 0px; color: rgb(0, 0, 0); font-family: Arial, Helvetica, FreeSans, Luxi-sans, &amp;quot;Nimbus Sans L&amp;quot;, sans-serif; font-size: 36px; font-style: normal; font-variant-ligatures: normal; font-variant-caps: normal; font-weight: 400; letter-spacing: normal; orphans: 2; text-align: start; text-transform: none; widows: 2; word-spacing: 0px; -webkit-text-stroke-width: 0px; text-decoration-thickness: initial; text-decoration-style: initial; text-decoration-color: initial;&quot; cellpadding=&quot;0&quot; cellspacing=&quot;0&quot; class=&quot;table&quot; summary=&quot;&quot;&gt;&lt;tbody style=&quot;font-size: 36px;&quot;&gt;&lt;tr valign=&quot;top&quot; style=&quot;font-size: 36px;&quot;&gt;&lt;td style=&quot;border: 2px solid white; padding-right: 0.5em; vertical-align: middle; text-align: right; font-size: 36px;&quot; title=&quot;Integration libraries&quot; class=&quot;tdhead&quot;&gt;&lt;a style=&quot;font-size: 36px; color: rgb(0, 0, 0); font-family: Arial, Helvetica, sans-serif; text-decoration: underline;&quot; class=&quot;ahead&quot; href=&quot;https://docs.oracle.com/javase/7/docs/technotes/guides/index.html#integration&quot;&gt;&lt;b style=&quot;font-size: 36px;&quot;&gt;Integration&lt;br style=&quot;font-size: 36px;&quot;&gt;Libraries&lt;/b&gt;&lt;/a&gt;&lt;/td&gt;&lt;td style=&quot;font-size: 36px;&quot;&gt;&lt;table style=&quot;width: 510.219px; height: 26.7969px; border: 0px; border-collapse: separate; border-spacing: 0px; font-size: 36px;&quot; summary=&quot;&quot; class=&quot;tablerows&quot;&gt;&lt;tbody style=&quot;font-size: 36px;&quot;&gt;&lt;tr style=&quot;font-size: 36px;&quot;&gt;&lt;/tr&gt;&lt;/tbody&gt;&lt;/table&gt;&#xa;&#xa;&lt;/td&gt;&lt;/tr&gt;&lt;/tbody&gt;&lt;/table&gt;" style="text;whiteSpace=wrap;html=1;fontSize=36;" parent="1" vertex="1">
          <mxGeometry x="485" y="637" width="200" height="100" as="geometry" />
        </mxCell>
        <mxCell id="oNcUS2OVP6WuHT-fpof1-23" value="&lt;a style=&quot;color: rgb(0, 0, 0); font-family: Arial, Helvetica, sans-serif; font-weight: bold; text-decoration-line: none;&quot; alt=&quot;API for printing&quot; class=&quot;atext&quot; href=&quot;https://docs.oracle.com/javase/7/docs/technotes/guides/jps/index.html&quot;&gt;Print Service&lt;/a&gt;" style="rounded=0;whiteSpace=wrap;html=1;fontSize=36;fillColor=#fa6800;strokeColor=#C73500;fontColor=#000000;" parent="1" vertex="1">
          <mxGeometry x="1700" y="603" width="330" height="60" as="geometry" />
        </mxCell>
        <mxCell id="oNcUS2OVP6WuHT-fpof1-24" value="&lt;a style=&quot;color: rgb(0, 0, 0); font-family: Arial, Helvetica, sans-serif; font-weight: bold; text-decoration-line: none;&quot; alt=&quot;API for capturing, processing, and playing back audio and MIDI data&quot; class=&quot;atext&quot; href=&quot;https://docs.oracle.com/javase/7/docs/technotes/guides/sound/index.html&quot;&gt;Sound&lt;/a&gt;" style="rounded=0;whiteSpace=wrap;html=1;fontSize=36;fillColor=#fa6800;strokeColor=#C73500;fontColor=#000000;" parent="1" vertex="1">
          <mxGeometry x="2040" y="603" width="155" height="60" as="geometry" />
        </mxCell>
        <mxCell id="oNcUS2OVP6WuHT-fpof1-28" value="&lt;a style=&quot;color: rgb(0, 0, 0); font-family: Arial, Helvetica, sans-serif; font-weight: bold; text-decoration-line: none;&quot; alt=&quot;GUI components for creating graphical user interfaces with pluggable look and feel&quot; class=&quot;atext&quot; href=&quot;https://docs.oracle.com/javase/7/docs/technotes/guides/swing/index.html&quot;&gt;Swing&lt;/a&gt;" style="rounded=0;whiteSpace=wrap;html=1;fontSize=36;fillColor=#fa6800;strokeColor=#C73500;fontColor=#000000;" parent="1" vertex="1">
          <mxGeometry x="705" y="533" width="280" height="60" as="geometry" />
        </mxCell>
        <mxCell id="oNcUS2OVP6WuHT-fpof1-29" value="&lt;a style=&quot;color: rgb(0, 0, 0); font-family: Arial, Helvetica, sans-serif; font-weight: bold; text-decoration-line: none;&quot; alt=&quot;Incorporate high-quality 2D graphics, text and images&quot; class=&quot;atext&quot; href=&quot;https://docs.oracle.com/javase/7/docs/technotes/guides/2d/index.html&quot;&gt;Java 2D&lt;/a&gt;" style="rounded=0;whiteSpace=wrap;html=1;fontSize=36;fillColor=#fa6800;strokeColor=#C73500;fontColor=#000000;" parent="1" vertex="1">
          <mxGeometry x="995" y="533" width="380" height="60" as="geometry" />
        </mxCell>
        <mxCell id="oNcUS2OVP6WuHT-fpof1-30" value="&lt;a style=&quot;color: rgb(0, 0, 0); font-family: Arial, Helvetica, sans-serif; font-weight: bold; text-decoration-line: none;&quot; alt=&quot;Abstract Window Toolkit for graphical user interface programming&quot; class=&quot;atext&quot; href=&quot;https://docs.oracle.com/javase/7/docs/technotes/guides/awt/index.html&quot;&gt;AWT&lt;/a&gt;" style="rounded=0;whiteSpace=wrap;html=1;fontSize=36;fillColor=#fa6800;strokeColor=#C73500;fontColor=#000000;" parent="1" vertex="1">
          <mxGeometry x="1385" y="533" width="305" height="60" as="geometry" />
        </mxCell>
        <mxCell id="oNcUS2OVP6WuHT-fpof1-31" value="&lt;a style=&quot;color: rgb(0, 0, 0); font-family: Arial, Helvetica, sans-serif; font-weight: bold; text-decoration-line: none;&quot; alt=&quot;Enable assistive technologies for user interfaces&quot; class=&quot;atext&quot; href=&quot;https://docs.oracle.com/javase/7/docs/technotes/guides/access/index.html&quot;&gt;Accessibility&lt;/a&gt;" style="rounded=0;whiteSpace=wrap;html=1;fontSize=36;fillColor=#fa6800;strokeColor=#C73500;fontColor=#000000;" parent="1" vertex="1">
          <mxGeometry x="1700" y="533" width="495" height="60" as="geometry" />
        </mxCell>
        <mxCell id="oNcUS2OVP6WuHT-fpof1-32" value="&lt;a style=&quot;font-size: 36px; color: rgb(0, 0, 0); font-family: Arial, Helvetica, sans-serif; text-decoration: underline; font-style: normal; font-variant-ligatures: normal; font-variant-caps: normal; font-weight: 400; letter-spacing: normal; orphans: 2; text-align: right; text-indent: 0px; text-transform: none; widows: 2; word-spacing: 0px; -webkit-text-stroke-width: 0px;&quot; class=&quot;ahead&quot; href=&quot;https://docs.oracle.com/javase/7/docs/technotes/guides/index.html#userinterface&quot;&gt;&lt;b style=&quot;font-size: 36px;&quot;&gt;User Interface&lt;br style=&quot;font-size: 36px;&quot;&gt;Toolkits&lt;/b&gt;&lt;/a&gt;" style="text;whiteSpace=wrap;html=1;fontSize=36;" parent="1" vertex="1">
          <mxGeometry x="435" y="513" width="250" height="100" as="geometry" />
        </mxCell>
        <mxCell id="oNcUS2OVP6WuHT-fpof1-34" value="" style="endArrow=none;html=1;rounded=0;strokeWidth=3;" parent="1" edge="1">
          <mxGeometry width="50" height="50" relative="1" as="geometry">
            <mxPoint x="2201" y="1223" as="sourcePoint" />
            <mxPoint x="2201" y="533" as="targetPoint" />
            <Array as="points">
              <mxPoint x="2325" y="1223" />
              <mxPoint x="2321" y="533" />
            </Array>
          </mxGeometry>
        </mxCell>
        <mxCell id="oNcUS2OVP6WuHT-fpof1-35" value="&lt;a style=&quot;font-size: 36px; color: rgb(0, 0, 0); font-family: Arial, Helvetica, sans-serif; font-weight: bold; text-decoration: underline; font-style: normal; font-variant-ligatures: normal; font-variant-caps: normal; letter-spacing: normal; orphans: 2; text-align: center; text-indent: 0px; text-transform: none; widows: 2; word-spacing: 0px; -webkit-text-stroke-width: 0px;&quot; class=&quot;atext&quot; href=&quot;https://docs.oracle.com/javase/7/docs/api/index.html&quot;&gt;Java SE&lt;br style=&quot;font-size: 36px;&quot;&gt;API&lt;/a&gt;" style="text;whiteSpace=wrap;html=1;fontSize=36;" parent="1" vertex="1">
          <mxGeometry x="2235" y="803" width="80" height="140" as="geometry" />
        </mxCell>
        <mxCell id="oNcUS2OVP6WuHT-fpof1-36" style="edgeStyle=orthogonalEdgeStyle;rounded=0;orthogonalLoop=1;jettySize=auto;html=1;exitX=0.5;exitY=1;exitDx=0;exitDy=0;" parent="1" source="oNcUS2OVP6WuHT-fpof1-35" target="oNcUS2OVP6WuHT-fpof1-35" edge="1">
          <mxGeometry relative="1" as="geometry" />
        </mxCell>
        <mxCell id="oNcUS2OVP6WuHT-fpof1-37" value="&lt;a style=&quot;color: rgb(0, 0, 0); font-family: Arial, Helvetica, sans-serif; font-weight: bold; text-decoration-line: none; font-size: 36px;&quot; alt=&quot;Set of graphics and media API that simplify development of data-driven enterprise client applications.&quot; class=&quot;atext&quot; href=&quot;http://docs.oracle.com/javafx/2/&quot;&gt;JavaFX&lt;/a&gt;" style="rounded=0;whiteSpace=wrap;html=1;fillColor=#fa6800;strokeColor=#C73500;verticalAlign=middle;fontColor=#000000;" parent="1" vertex="1">
          <mxGeometry x="705" y="463" width="1490" height="60" as="geometry" />
        </mxCell>
        <mxCell id="oNcUS2OVP6WuHT-fpof1-38" value="&lt;a style=&quot;color: rgb(0, 0, 0); font-family: Arial, Helvetica, sans-serif; font-weight: bold; text-decoration-line: none;&quot; alt=&quot;Seamlessly download and launch a Java application&quot; class=&quot;atext&quot; href=&quot;https://docs.oracle.com/javase/7/docs/technotes/guides/javaws/index.html&quot;&gt;Java Web Start&lt;/a&gt;" style="rounded=0;whiteSpace=wrap;html=1;fontSize=36;fillColor=#ffcccc;strokeColor=#36393d;" parent="1" vertex="1">
          <mxGeometry x="705" y="393" width="670" height="60" as="geometry" />
        </mxCell>
        <mxCell id="oNcUS2OVP6WuHT-fpof1-39" value="&lt;a style=&quot;color: rgb(0, 0, 0); font-family: Arial, Helvetica, sans-serif; font-weight: bold; text-decoration-line: none;&quot; alt=&quot;Use the JRE in your browser to run applets or Java beans&quot; class=&quot;atext&quot; href=&quot;https://docs.oracle.com/javase/7/docs/technotes/guides/jweb/applet/applet_dev_guide.html&quot;&gt;Applet / Java Plug-in&lt;/a&gt;" style="rounded=0;whiteSpace=wrap;html=1;fontSize=36;fillColor=#ffcccc;strokeColor=#36393d;" parent="1" vertex="1">
          <mxGeometry x="1385" y="393" width="810" height="60" as="geometry" />
        </mxCell>
        <mxCell id="oNcUS2OVP6WuHT-fpof1-41" value="&lt;a style=&quot;font-size: 36px; color: rgb(0, 0, 0); font-family: Arial, Helvetica, sans-serif; text-decoration: underline; font-style: normal; font-variant-ligatures: normal; font-variant-caps: normal; font-weight: 400; letter-spacing: normal; orphans: 2; text-align: right; text-indent: 0px; text-transform: none; widows: 2; word-spacing: 0px; -webkit-text-stroke-width: 0px;&quot; alt=&quot;Deployment&quot; class=&quot;ahead&quot; href=&quot;https://docs.oracle.com/javase/7/docs/technotes/guides/jweb/index.html&quot;&gt;&lt;b style=&quot;font-size: 36px;&quot;&gt;Deployment&lt;/b&gt;&lt;/a&gt;" style="text;whiteSpace=wrap;html=1;fontSize=36;" parent="1" vertex="1">
          <mxGeometry x="465" y="393" width="220" height="60" as="geometry" />
        </mxCell>
        <mxCell id="oNcUS2OVP6WuHT-fpof1-42" value="" style="endArrow=none;html=1;rounded=0;strokeWidth=3;" parent="1" edge="1">
          <mxGeometry width="50" height="50" relative="1" as="geometry">
            <mxPoint x="325" y="393" as="sourcePoint" />
            <mxPoint x="315" y="1223" as="targetPoint" />
            <Array as="points">
              <mxPoint x="195" y="393" />
              <mxPoint x="195" y="1223" />
            </Array>
          </mxGeometry>
        </mxCell>
        <mxCell id="oNcUS2OVP6WuHT-fpof1-43" value="&lt;a style=&quot;font-size: 36px; color: rgb(0, 0, 0); font-family: Arial, Helvetica, sans-serif; font-weight: bold; text-decoration: underline; font-style: normal; font-variant-ligatures: normal; font-variant-caps: normal; letter-spacing: normal; orphans: 2; text-align: left; text-indent: 0px; text-transform: none; widows: 2; word-spacing: 0px; -webkit-text-stroke-width: 0px;&quot; class=&quot;atext&quot; href=&quot;https://docs.oracle.com/javase/7/docs/technotes/guides/index.html#jre-jdk&quot;&gt;JRE&lt;/a&gt;" style="text;whiteSpace=wrap;html=1;fontSize=36;" parent="1" vertex="1">
          <mxGeometry x="205" y="763" width="100" height="50" as="geometry" />
        </mxCell>
        <mxCell id="oNcUS2OVP6WuHT-fpof1-44" value="&lt;a style=&quot;color: rgb(0, 0, 0); font-family: Arial, Helvetica, sans-serif; font-weight: bold; text-decoration-line: none;&quot; alt=&quot;IDL and RMI-IIOP tools&quot; class=&quot;atext&quot; href=&quot;https://docs.oracle.com/javase/7/docs/technotes/tools/index.html#idl&quot;&gt;IDL&lt;/a&gt;" style="rounded=0;whiteSpace=wrap;html=1;fontSize=36;fillColor=#cce5ff;strokeColor=#36393d;" parent="1" vertex="1">
          <mxGeometry x="705" y="323" width="180" height="60" as="geometry" />
        </mxCell>
        <mxCell id="oNcUS2OVP6WuHT-fpof1-45" value="&lt;a style=&quot;color: rgb(0, 0, 0); font-family: Arial, Helvetica, sans-serif; font-weight: bold; text-decoration-line: none;&quot; alt=&quot;Troubleshooting tools&quot; class=&quot;atext&quot; href=&quot;https://docs.oracle.com/javase/7/docs/technotes/tools/index.html#troubleshoot&quot;&gt;Troubleshoot&lt;/a&gt;" style="rounded=0;whiteSpace=wrap;html=1;fontSize=36;fillColor=#cce5ff;strokeColor=#36393d;" parent="1" vertex="1">
          <mxGeometry x="1365" y="323" width="250" height="60" as="geometry" />
        </mxCell>
        <mxCell id="oNcUS2OVP6WuHT-fpof1-46" value="&lt;a style=&quot;color: rgb(0, 0, 0); font-family: Arial, Helvetica, sans-serif; font-weight: bold; text-decoration-line: none;&quot; alt=&quot;Java Platform Debugger Architecture&quot; class=&quot;atext&quot; href=&quot;https://docs.oracle.com/javase/7/docs/technotes/guides/jpda/index.html&quot;&gt;JPDA&lt;/a&gt;" style="rounded=0;whiteSpace=wrap;html=1;fontSize=36;fillColor=#cce5ff;strokeColor=#36393d;" parent="1" vertex="1">
          <mxGeometry x="1795" y="183" width="400" height="60" as="geometry" />
        </mxCell>
        <mxCell id="oNcUS2OVP6WuHT-fpof1-47" value="&lt;a style=&quot;color: rgb(0, 0, 0); font-family: Arial, Helvetica, sans-serif; font-weight: bold; text-decoration-line: none;&quot; alt=&quot;Deployment, Plug-in and Web Start tools&quot; class=&quot;atext&quot; href=&quot;https://docs.oracle.com/javase/7/docs/technotes/tools/index.html#deployment&quot;&gt;Deploy&lt;/a&gt;" style="rounded=0;whiteSpace=wrap;html=1;fontSize=36;fillColor=#cce5ff;strokeColor=#36393d;" parent="1" vertex="1">
          <mxGeometry x="895" y="323" width="270" height="60" as="geometry" />
        </mxCell>
        <mxCell id="oNcUS2OVP6WuHT-fpof1-49" value="&lt;a style=&quot;color: rgb(0, 0, 0); font-family: Arial, Helvetica, sans-serif; font-weight: bold; text-decoration-line: none;&quot; alt=&quot;Scripting tools&quot; class=&quot;atext&quot; href=&quot;https://docs.oracle.com/javase/7/docs/technotes/tools/index.html#scripting&quot;&gt;Scripting&lt;/a&gt;" style="rounded=0;whiteSpace=wrap;html=1;fontSize=36;fillColor=#cce5ff;strokeColor=#36393d;" parent="1" vertex="1">
          <mxGeometry x="1625" y="323" width="160" height="60" as="geometry" />
        </mxCell>
        <mxCell id="oNcUS2OVP6WuHT-fpof1-50" value="&lt;a style=&quot;color: rgb(0, 0, 0); font-family: Arial, Helvetica, sans-serif; font-weight: bold; text-decoration-line: none;&quot; alt=&quot;Security tools&quot; class=&quot;atext&quot; href=&quot;https://docs.oracle.com/javase/7/docs/technotes/tools/index.html#security&quot;&gt;Security&lt;/a&gt;" style="rounded=0;whiteSpace=wrap;html=1;fontSize=36;fillColor=#cce5ff;strokeColor=#36393d;" parent="1" vertex="1">
          <mxGeometry x="1175" y="323" width="180" height="60" as="geometry" />
        </mxCell>
        <mxCell id="oNcUS2OVP6WuHT-fpof1-51" value="&lt;a style=&quot;color: rgb(0, 0, 0); font-family: Arial, Helvetica, sans-serif; font-weight: bold; text-decoration-line: none;&quot; alt=&quot;Generate HTML pages that describe classes and class members.&quot; class=&quot;atext&quot; href=&quot;https://docs.oracle.com/javase/7/docs/technotes/guides/javadoc/index.html&quot;&gt;javadoc&lt;/a&gt;" style="rounded=0;whiteSpace=wrap;html=1;fontSize=36;fillColor=#cce5ff;strokeColor=#36393d;" parent="1" vertex="1">
          <mxGeometry x="1175" y="183" width="180" height="60" as="geometry" />
        </mxCell>
        <mxCell id="oNcUS2OVP6WuHT-fpof1-52" value="&lt;a style=&quot;color: rgb(0, 0, 0); font-family: Arial, Helvetica, sans-serif; font-weight: bold; text-decoration-line: none;&quot; alt=&quot;Java archive tool&quot; class=&quot;atext&quot; href=&quot;https://docs.oracle.com/javase/7/docs/technotes/guides/jar/index.html&quot;&gt;jar&lt;/a&gt;" style="rounded=0;whiteSpace=wrap;html=1;fontSize=36;fillColor=#cce5ff;strokeColor=#36393d;" parent="1" vertex="1">
          <mxGeometry x="1365" y="183" width="250" height="60" as="geometry" />
        </mxCell>
        <mxCell id="oNcUS2OVP6WuHT-fpof1-53" value="&lt;a style=&quot;color: rgb(0, 0, 0); font-family: Arial, Helvetica, sans-serif; font-weight: bold; text-decoration-line: none;&quot; alt=&quot;Remote Method Invocation tools&quot; class=&quot;atext&quot; href=&quot;https://docs.oracle.com/javase/7/docs/technotes/tools/index.html#rmi&quot;&gt;RMI&lt;/a&gt;" style="rounded=0;whiteSpace=wrap;html=1;fontSize=36;fillColor=#cce5ff;strokeColor=#36393d;" parent="1" vertex="1">
          <mxGeometry x="2065" y="323" width="130" height="60" as="geometry" />
        </mxCell>
        <mxCell id="oNcUS2OVP6WuHT-fpof1-54" value="&lt;a href=&quot;https://docs.oracle.com/javase/7/docs/technotes/tools/index.html#webservices&quot; class=&quot;atext&quot; alt=&quot;Java Web Services Tools&quot; style=&quot;color: rgb(0, 0, 0); font-family: Arial, Helvetica, sans-serif; font-weight: bold; text-decoration-line: none;&quot;&gt;Web Services&lt;/a&gt;" style="rounded=0;whiteSpace=wrap;html=1;fontSize=36;fillColor=#cce5ff;strokeColor=#36393d;" parent="1" vertex="1">
          <mxGeometry x="1795" y="323" width="260" height="60" as="geometry" />
        </mxCell>
        <mxCell id="oNcUS2OVP6WuHT-fpof1-55" value="&lt;a href=&quot;https://docs.oracle.com/javase/7/docs/technotes/tools/index.html#jconsole&quot; class=&quot;atext&quot; alt=&quot;jconsole&quot; style=&quot;color: rgb(0, 0, 0); font-family: Arial, Helvetica, sans-serif; font-weight: bold; text-decoration-line: none;&quot;&gt;JConsole&lt;/a&gt;" style="rounded=0;whiteSpace=wrap;html=1;fontSize=36;fillColor=#cce5ff;strokeColor=#36393d;" parent="1" vertex="1">
          <mxGeometry x="705" y="253" width="180" height="60" as="geometry" />
        </mxCell>
        <mxCell id="oNcUS2OVP6WuHT-fpof1-56" value="&lt;a href=&quot;https://docs.oracle.com/javase/7/docs/technotes/tools/index.html#intl&quot; class=&quot;atext&quot; alt=&quot;Internationalization tools&quot; style=&quot;color: rgb(0, 0, 0); font-family: Arial, Helvetica, sans-serif; font-weight: bold; text-decoration-line: none;&quot;&gt;Int&#39;l&lt;/a&gt;" style="rounded=0;whiteSpace=wrap;html=1;fontSize=36;fillColor=#cce5ff;strokeColor=#36393d;" parent="1" vertex="1">
          <mxGeometry x="1795" y="253" width="260" height="60" as="geometry" />
        </mxCell>
        <mxCell id="oNcUS2OVP6WuHT-fpof1-57" value="&lt;a href=&quot;https://docs.oracle.com/javase/7/docs/technotes/guides/visualvm/index.html&quot; class=&quot;atext&quot; alt=&quot;Java VisualVM&quot; style=&quot;color: rgb(0, 0, 0); font-family: Arial, Helvetica, sans-serif; font-weight: bold; text-decoration-line: none;&quot;&gt;Java VisualVM&lt;/a&gt;" style="rounded=0;whiteSpace=wrap;html=1;fontSize=36;fillColor=#cce5ff;strokeColor=#36393d;" parent="1" vertex="1">
          <mxGeometry x="895" y="253" width="270" height="60" as="geometry" />
        </mxCell>
        <mxCell id="oNcUS2OVP6WuHT-fpof1-58" value="&lt;a href=&quot;http://docs.oracle.com/javadb/index_jdk7.html&quot; class=&quot;atext&quot; alt=&quot;Java DB&quot; style=&quot;color: rgb(0, 0, 0); font-family: Arial, Helvetica, sans-serif; font-weight: bold; text-decoration-line: none;&quot;&gt;Java DB&lt;/a&gt;" style="rounded=0;whiteSpace=wrap;html=1;fontSize=36;fillColor=#cce5ff;strokeColor=#36393d;" parent="1" vertex="1">
          <mxGeometry x="1625" y="253" width="160" height="60" as="geometry" />
        </mxCell>
        <mxCell id="oNcUS2OVP6WuHT-fpof1-59" value="&lt;a alt=&quot;Java Mission Control&quot; href=&quot;https://docs.oracle.com/javase/7/docs/technotes/guides/jmc/index.html&quot; class=&quot;atext&quot; style=&quot;color: rgb(0, 0, 0); font-family: Arial, Helvetica, sans-serif; font-weight: bold; text-decoration-line: none;&quot;&gt;JMC&lt;/a&gt;" style="rounded=0;whiteSpace=wrap;html=1;fontSize=36;fillColor=#cce5ff;strokeColor=#36393d;" parent="1" vertex="1">
          <mxGeometry x="1175" y="253" width="180" height="60" as="geometry" />
        </mxCell>
        <mxCell id="oNcUS2OVP6WuHT-fpof1-60" value="&lt;a alt=&quot;Java Flight Recorder&quot; href=&quot;https://docs.oracle.com/javase/7/docs/technotes/guides/jfr/index.html&quot; class=&quot;atext&quot; style=&quot;color: rgb(0, 0, 0); font-family: Arial, Helvetica, sans-serif; font-weight: bold; text-decoration-line: none;&quot;&gt;JFR&lt;/a&gt;" style="rounded=0;whiteSpace=wrap;html=1;fontSize=36;fillColor=#cce5ff;strokeColor=#36393d;" parent="1" vertex="1">
          <mxGeometry x="1365" y="253" width="250" height="60" as="geometry" />
        </mxCell>
        <mxCell id="oNcUS2OVP6WuHT-fpof1-61" value="&lt;a href=&quot;https://docs.oracle.com/javase/7/docs/technotes/guides/jvmti/index.html&quot; class=&quot;atext&quot; alt=&quot;Java Virtual Machine Tool Interface&quot; style=&quot;color: rgb(0, 0, 0); font-family: Arial, Helvetica, sans-serif; font-weight: bold; text-decoration-line: none;&quot;&gt;JVM TI&lt;/a&gt;" style="rounded=0;whiteSpace=wrap;html=1;fontSize=36;fillColor=#cce5ff;strokeColor=#36393d;" parent="1" vertex="1">
          <mxGeometry x="2065" y="253" width="130" height="60" as="geometry" />
        </mxCell>
        <mxCell id="oNcUS2OVP6WuHT-fpof1-63" value="&lt;a style=&quot;color: rgb(0, 0, 0); font-family: Arial, Helvetica, sans-serif; font-weight: bold; text-decoration-line: none;&quot; alt=&quot;Java runtime launcher&quot; class=&quot;atext&quot; href=&quot;https://docs.oracle.com/javase/7/docs/technotes/tools/windows/java.html&quot;&gt;java&lt;/a&gt;" style="rounded=0;whiteSpace=wrap;html=1;fontSize=36;fillColor=#cce5ff;strokeColor=#36393d;" parent="1" vertex="1">
          <mxGeometry x="705" y="183" width="180" height="60" as="geometry" />
        </mxCell>
        <mxCell id="oNcUS2OVP6WuHT-fpof1-64" value="&lt;a style=&quot;color: rgb(0, 0, 0); font-family: Arial, Helvetica, sans-serif; font-weight: bold; text-decoration-line: none;&quot; alt=&quot;Compile Java language code&quot; class=&quot;atext&quot; href=&quot;https://docs.oracle.com/javase/7/docs/technotes/guides/javac/index.html&quot;&gt;javac&lt;/a&gt;" style="rounded=0;whiteSpace=wrap;html=1;fontSize=36;fillColor=#cce5ff;strokeColor=#36393d;" parent="1" vertex="1">
          <mxGeometry x="895" y="183" width="270" height="60" as="geometry" />
        </mxCell>
        <mxCell id="oNcUS2OVP6WuHT-fpof1-65" value="&lt;a style=&quot;color: rgb(0, 0, 0); font-family: Arial, Helvetica, sans-serif; font-weight: bold; text-decoration-line: none;&quot; alt=&quot;Java class file disassembler&quot; class=&quot;atext&quot; href=&quot;https://docs.oracle.com/javase/7/docs/technotes/tools/windows/javap.html&quot;&gt;javap&lt;/a&gt;" style="rounded=0;whiteSpace=wrap;html=1;fontSize=36;fillColor=#cce5ff;strokeColor=#36393d;" parent="1" vertex="1">
          <mxGeometry x="1625" y="183" width="160" height="60" as="geometry" />
        </mxCell>
        <mxCell id="oNcUS2OVP6WuHT-fpof1-66" value="&lt;a style=&quot;font-size: 36px; color: rgb(0, 0, 0); font-family: Arial, Helvetica, sans-serif; text-decoration: underline; font-style: normal; font-variant-ligatures: normal; font-variant-caps: normal; font-weight: 400; letter-spacing: normal; orphans: 2; text-align: right; text-indent: 0px; text-transform: none; widows: 2; word-spacing: 0px; -webkit-text-stroke-width: 0px;&quot; alt=&quot;Tools and APIs for software development&quot; class=&quot;ahead&quot; href=&quot;https://docs.oracle.com/javase/7/docs/technotes/tools/index.html&quot;&gt;&lt;b style=&quot;font-size: 36px;&quot;&gt;Tools &amp;amp;&lt;br style=&quot;font-size: 36px;&quot;&gt;Tool APIs&lt;/b&gt;&lt;/a&gt;" style="text;whiteSpace=wrap;html=1;fontSize=36;" parent="1" vertex="1">
          <mxGeometry x="505" y="233" width="180" height="100" as="geometry" />
        </mxCell>
        <mxCell id="oNcUS2OVP6WuHT-fpof1-67" value="&lt;a style=&quot;color: rgb(0, 0, 0); font-family: Arial, Helvetica, sans-serif; font-weight: bold; text-decoration-line: none; font-size: 36px;&quot; alt=&quot;Java Programming Language&quot; class=&quot;atext&quot; href=&quot;https://docs.oracle.com/javase/7/docs/technotes/guides/language/index.html&quot;&gt;Java Language&lt;/a&gt;" style="rounded=0;whiteSpace=wrap;html=1;fillColor=#95AABD;strokeColor=#314354;verticalAlign=middle;fontColor=#ffffff;" parent="1" vertex="1">
          <mxGeometry x="705" y="113" width="1490" height="60" as="geometry" />
        </mxCell>
        <mxCell id="oNcUS2OVP6WuHT-fpof1-69" value="&lt;a style=&quot;font-size: 36px; color: rgb(0, 0, 0); font-family: Arial, Helvetica, sans-serif; text-decoration: underline; font-style: normal; font-variant-ligatures: normal; font-variant-caps: normal; font-weight: 400; letter-spacing: normal; orphans: 2; text-align: right; text-indent: 0px; text-transform: none; widows: 2; word-spacing: 0px; -webkit-text-stroke-width: 0px;&quot; alt=&quot;Java programming language&quot; class=&quot;ahead&quot; href=&quot;https://docs.oracle.com/javase/7/docs/technotes/guides/language/index.html&quot;&gt;&lt;b style=&quot;font-size: 36px;&quot;&gt;Java Language&lt;/b&gt;&lt;/a&gt;" style="text;whiteSpace=wrap;html=1;fontSize=36;" parent="1" vertex="1">
          <mxGeometry x="405" y="118" width="280" height="50" as="geometry" />
        </mxCell>
        <mxCell id="oNcUS2OVP6WuHT-fpof1-70" value="" style="endArrow=none;html=1;rounded=0;strokeWidth=3;" parent="1" edge="1">
          <mxGeometry width="50" height="50" relative="1" as="geometry">
            <mxPoint x="195" y="113" as="sourcePoint" />
            <mxPoint x="195" y="1223" as="targetPoint" />
            <Array as="points">
              <mxPoint x="75" y="113" />
              <mxPoint x="75" y="1223" />
            </Array>
          </mxGeometry>
        </mxCell>
        <mxCell id="oNcUS2OVP6WuHT-fpof1-71" value="&lt;a style=&quot;font-size: 36px; color: rgb(0, 0, 0); font-family: Arial, Helvetica, sans-serif; font-weight: bold; text-decoration: underline; font-style: normal; font-variant-ligatures: normal; font-variant-caps: normal; letter-spacing: normal; orphans: 2; text-align: left; text-indent: 0px; text-transform: none; widows: 2; word-spacing: 0px; -webkit-text-stroke-width: 0px;&quot; class=&quot;atext&quot; href=&quot;https://docs.oracle.com/javase/7/docs/technotes/guides/index.html#jre-jdk&quot;&gt;JDK&lt;/a&gt;" style="text;whiteSpace=wrap;html=1;fontSize=36;" parent="1" vertex="1">
          <mxGeometry x="75" y="543" width="80" height="60" as="geometry" />
        </mxCell>
        <mxCell id="yn0_xW3GY8FeiIRkSdhr-1" value="&lt;a style=&quot;color: rgb(0, 0, 0); font-family: Arial, Helvetica, sans-serif; font-weight: bold; text-decoration-line: none;&quot; alt=&quot;Drag and drop support between Java applications and native applications&quot; class=&quot;atext&quot; href=&quot;https://docs.oracle.com/javase/7/docs/technotes/guides/dragndrop/index.html&quot;&gt;Drag and Drop&lt;/a&gt;" style="rounded=0;whiteSpace=wrap;html=1;fontSize=36;fillColor=#fa6800;strokeColor=#C73500;fontColor=#000000;" vertex="1" parent="1">
          <mxGeometry x="705" y="603" width="280" height="60" as="geometry" />
        </mxCell>
        <mxCell id="yn0_xW3GY8FeiIRkSdhr-2" value="&lt;a style=&quot;color: rgb(0, 0, 0); font-family: Arial, Helvetica, sans-serif; font-weight: bold; text-decoration-line: none;&quot; alt=&quot;Input Method Framework for text editing components and input methods&quot; class=&quot;atext&quot; href=&quot;https://docs.oracle.com/javase/7/docs/technotes/guides/imf/index.html&quot;&gt;Input Methods&lt;/a&gt;" style="rounded=0;whiteSpace=wrap;html=1;fontSize=36;fillColor=#fa6800;strokeColor=#C73500;fontColor=#000000;" vertex="1" parent="1">
          <mxGeometry x="995" y="603" width="380" height="60" as="geometry" />
        </mxCell>
        <mxCell id="yn0_xW3GY8FeiIRkSdhr-3" value="&lt;a style=&quot;color: rgb(0, 0, 0); font-family: Arial, Helvetica, sans-serif; font-weight: bold; text-decoration-line: none;&quot; alt=&quot;Pluggable architecture for images accessed across a network&quot; class=&quot;atext&quot; href=&quot;https://docs.oracle.com/javase/7/docs/technotes/guides/imageio/index.html&quot;&gt;Image I/O&lt;/a&gt;" style="rounded=0;whiteSpace=wrap;html=1;fontSize=36;fillColor=#fa6800;strokeColor=#C73500;fontColor=#000000;" vertex="1" parent="1">
          <mxGeometry x="1385" y="603" width="305" height="60" as="geometry" />
        </mxCell>
      </root>
    </mxGraphModel>
  </diagram>
</mxfile>
